# xmcd CD database file
#
# Track frame offsets:
#	150
#	19528
#	35260
#	52684
#	70673
#	90171
#	111179
#	126729
#	145546
#	162903
#	180950
#	196057
#
# Disc length: 2807 seconds
#
# Revision: 0
# Processed by: cddbd v1.5.2PL0 Copyright (c) Steve Scherf et al.
# Submitted via: CDex 1.51
#
DISCID=890af50c
DTITLE=Melanie Mason - Lonesome Is I
DYEAR=2004
DGENRE=Blues
TTITLE0=Preachin' Blues (Up Jumped The Devil)
TTITLE1=Joe Turner Killed A Man
TTITLE2=Statesboro Blues
TTITLE3=Prodigal Son
TTITLE4=Ease Up
TTITLE5=Make Me A Pallet On The Floor
TTITLE6=Come On In My Kitchen
TTITLE7=Stones In My Passway
TTITLE8=Sliding Delta
TTITLE9=Nobody Cares For Me
TTITLE10=Sweet Home Chicago
TTITLE11=Lonely Lonesome Gal
EXTD=YEAR: 2004
EXTT0=
EXTT1=
EXTT2=
EXTT3=
EXTT4=
EXTT5=
EXTT6=
EXTT7=
EXTT8=
EXTT9=
EXTT10=
EXTT11=
PLAYORDER=
